<svg xmlns="http://www.w3.org/2000/svg" width="279.082" height="56.427" viewBox="0 0 279.082 56.427"><g transform="translate(-0.001)"><g transform="translate(0.001)"><g transform="translate(77.189 9.779)"><path d="M198.693,58.477c-11.4,0-17.533-8.471-17.533-17.4s6.549-18.13,17.721-18.13c7.278,0,12.224,4.214,12.224,6.685a2.876,2.876,0,0,1-2.791,2.838,2.935,2.935,0,0,1-2.335-1.236,9.646,9.646,0,0,0-7.555-3.251c-7.738,0-11.858,6.592-11.858,12.774,0,3.848,2.245,12.454,11.9,12.454,3.481,0,6.915-1.329,8.79-3.848a2.663,2.663,0,0,1,2.245-1.189,3.138,3.138,0,0,1,3.068,2.931c0,2.382-5.45,7.371-13.873,7.371Z" transform="translate(-181.16 -22.95)" fill="#fff"/><path d="M279.9,73.534a5.4,5.4,0,0,1-1.236-1.513.249.249,0,0,0-.183-.136.407.407,0,0,0-.277.136c-1.555,1.785-4.44,2.748-7.141,2.748-5.036,0-8.01-3.664-8.01-7.188a6.014,6.014,0,0,1,4.44-5.722,49.523,49.523,0,0,1,7.827-2.015c.456-.047.822-.6.822-1.555,0-.55-.136-2.885-3.251-2.885a6.073,6.073,0,0,0-4.487,1.922,2.215,2.215,0,0,1-1.7.822,2.152,2.152,0,0,1-2.2-2.1c0-2.2,4.031-4.623,8.654-4.623,5.036,0,7.785,2.471,7.785,7.738,0,.6-.047,1.146-.094,1.785a35.175,35.175,0,0,0-.23,3.8,6.911,6.911,0,0,0,.047,1.052c.413,3.664,2.1,3.8,2.471,4.073a1.92,1.92,0,0,1,.733,1.6,2.355,2.355,0,0,1-3.984,2.062Zm-4.21-9.843c-7.738.963-8.194,2.885-8.194,3.984,0,1.419,1.236,2.838,3.571,2.838,3.707,0,5.309-1.879,5.309-5.126,0-.686-.089-1.7-.639-1.7Z" transform="translate(-228.158 -39.289)" fill="#fff"/><path d="M322.38,72.624v-.094c.136-4.35.183-7.371.183-10.073s-.047-5.126-.136-8.194v-.094a2.266,2.266,0,0,1,2.471-2.058,2.16,2.16,0,0,1,2.335,2.152c0,.183-.047.32-.047.46v.183c0,.094,0,.136.047.136a.541.541,0,0,0,.183-.183,8.447,8.447,0,0,1,5.859-2.791,2.154,2.154,0,0,1,2.245,2.2,2.6,2.6,0,0,1-2.608,2.518c-2.7.277-5.722,2.518-5.859,5.4-.047.822-.047,1.785-.047,3.021,0,1.785.047,4.073.136,7.324a2.16,2.16,0,0,1-2.335,2.335,2.259,2.259,0,0,1-2.424-2.245Z" transform="translate(-262.208 -39.662)" fill="#fff"/><path d="M367.6,74.77c-6.272,0-10.942-4.717-10.942-11.538s4.947-11.811,10.852-11.811c6.319,0,9.889,4.623,9.889,8.1,0,2.152-1.419,3.89-4.35,3.984-1.419.047-2.382.047-11.261.047-.277,0-.366.366-.366.869a6.024,6.024,0,0,0,6.225,6.089,7.716,7.716,0,0,0,5.952-2.791,2.078,2.078,0,0,1,1.555-.733,2.5,2.5,0,0,1,2.429,2.382,2.188,2.188,0,0,1-.686,1.6c-2.2,2.288-4.67,3.8-9.293,3.8Zm5.036-16.025c0-.639-.963-3.341-5.083-3.341-3.707,0-5.722,3.2-5.722,3.984,0,.413.456.413,4.717.413,1.875,0,3.937,0,5.173-.047a.968.968,0,0,0,.916-1.006Z" transform="translate(-281.882 -39.289)" fill="#fff"/><path d="M426.273,26.611a2.537,2.537,0,0,1,2.565-2.7A2.6,2.6,0,0,1,431.45,26.7v.183c-.136,2.931-.277,12.591-.277,18.957,0,2.612.047,4.67.094,5.45.183,2.2,1.189,2.2,7.418,2.2,2.655,0,5.586-.047,6.455-.094h.23a2.393,2.393,0,0,1,2.471,2.429,2.7,2.7,0,0,1-2.885,2.612c-.6.047-3.3.089-6,.089s-5.356-.047-5.952-.089c-4.21-.32-6.732-1.832-6.868-5.859-.047-.963-.047-2.429-.047-4.12,0-6.272.183-16.3.183-20.831V26.62Z" transform="translate(-321.729 -23.501)" fill="#fff"/><path d="M481.45,63.215a11.515,11.515,0,1,1,23.03,0,11.515,11.515,0,1,1-23.03,0Zm18.407,0c0-4.534-3.115-7.371-6.869-7.371s-6.915,2.838-6.915,7.371,3.115,7.278,6.915,7.278S499.857,67.7,499.857,63.215Z" transform="translate(-353.501 -39.41)" fill="#fff"/><path d="M541.66,63.215a11.515,11.515,0,1,1,23.03,0,11.515,11.515,0,1,1-23.03,0Zm18.407,0c0-4.534-3.115-7.371-6.869-7.371s-6.915,2.838-6.915,7.371,3.115,7.278,6.915,7.278S560.067,67.7,560.067,63.215Z" transform="translate(-388.056 -39.41)" fill="#fff"/><path d="M607.187,54.269a.16.16,0,0,0,.136-.047,9.575,9.575,0,0,1,6.366-2.382c6.319,0,11.078,4.58,11.078,11.492s-4.759,11.492-11.078,11.492a9.612,9.612,0,0,1-6.366-2.429c-.094-.047-.183-.136-.23-.136-.094,0-.136.094-.136.277,0,5.036.094,9.387.136,11.261a2.2,2.2,0,0,1-2.335,2.382A2.318,2.318,0,0,1,602.33,83.8v-.23c.136-1.649.136-5.083.136-9.11,0-6.915-.094-15.522-.094-19.873a2.382,2.382,0,0,1,2.382-2.565,2.308,2.308,0,0,1,2.288,2.1c.047.094.094.136.136.136Zm13,9.067c0-4.487-2.932-7.235-6.592-7.235s-6.592,2.748-6.592,7.235,2.932,7.324,6.592,7.324S620.192,67.869,620.192,63.336Z" transform="translate(-422.875 -39.53)" fill="#fff"/></g><path d="M17.875,46a3.346,3.346,0,0,1-2.143-.925A48.166,48.166,0,0,1,2.493,27.227C.15,21.769-.532,16.8.409,12.024,1.854,4.721,7.329,0,14.36,0a16.587,16.587,0,0,1,5.3.9A21.358,21.358,0,0,1,30.031,8.846c.124.166.243.332.362.5l.648.912-.128.1a2.666,2.666,0,0,1-.043,1.559A2.5,2.5,0,0,1,28.5,13.643h0a2.593,2.593,0,0,1-1.308-.358,3.076,3.076,0,0,1-.575-.537c-3.46-3.532-6.212-5.795-8.189-6.715a8.572,8.572,0,0,0-3.656-.8,9.509,9.509,0,0,0-9.306,8.113c-.6,3.613-.034,7.295,1.768,11.594A42.5,42.5,0,0,0,18.94,40.857,3.536,3.536,0,0,1,20.3,43.252a2.534,2.534,0,0,1-.643,1.883A2.337,2.337,0,0,1,17.87,46Z" transform="translate(-0.001)" fill="#fff"/><path d="M65.893,53.188a5.97,5.97,0,0,1-5.42-3.848A23.252,23.252,0,0,1,58.3,38.386a48.215,48.215,0,0,1,9.519-27.9A21.358,21.358,0,0,1,78.19,2.539a16.587,16.587,0,0,1,5.3-.9c7.03,0,12.506,4.721,13.95,12.024.942,4.772.26,9.745-2.079,15.2A48.188,48.188,0,0,1,82.122,46.711a3.355,3.355,0,0,1-2.143.925h0a2.337,2.337,0,0,1-1.79-.861,2.528,2.528,0,0,1-.643-1.883A3.569,3.569,0,0,1,78.91,42.5,42.5,42.5,0,0,0,90.619,26.579c1.8-4.295,2.365-7.981,1.768-11.594a9.512,9.512,0,0,0-9.306-8.113,8.586,8.586,0,0,0-3.656.8,21.321,21.321,0,0,0-9.587,9.08,44.47,44.47,0,0,0-6.327,23.379,14.426,14.426,0,0,0,1.359,5.957l.209.545c.349.916.52,1.129.9,1.129.456-.026.592-.251.895-1.061l.043-.111c2.16-5.782,1.909-9.868.635-15.825-.034-.149-.124-.516-.2-.861-.072-.3-.145-.588-.166-.7-.418-1.892.349-3.652,1.738-4a1.987,1.987,0,0,1,.481-.06,2.281,2.281,0,0,1,1.521.605,4.4,4.4,0,0,1,.916,2.28l.038.175c.648,2.914,2.552,13.025-.213,20.746a6,6,0,0,1-2.62,3.341,6.187,6.187,0,0,1-3.145.895Z" transform="translate(-33.46 -0.941)" fill="#fff"/></g></g></svg>